<svg width="160" height="28" viewBox="0 0 160 28" fill="none" xmlns="http://www.w3.org/2000/svg">
<g clip-path="url(#clip0_3512_6150)">
<path d="M3.461 18.2407C3.27175 18.1231 3.13575 18.2181 3.08543 18.2743C3.04167 18.3236 2.97531 18.4674 3.0847 18.6416C3.80412 19.7767 5.01688 23.1215 2.06665 27.9946H6.91588C7.62362 24.7335 7.23821 20.5577 3.461 18.2407Z" fill="#F18A00"/>
<path d="M14.0499 19.953C13.7709 19.8917 13.5653 20.1334 13.8001 20.3616C13.8001 20.3616 16.0791 22.3704 15.6255 27.9946H19.83C19.83 27.9946 19.7308 21.2287 14.0499 19.953Z" fill="#F18A00"/>
<path d="M25.7228 11.5021C25.7228 11.5021 27.0763 10.7646 26.176 9.4655C26.176 9.4655 26.9647 8.72798 26.2314 7.88311C26.2314 7.88311 26.7379 6.97545 26.0072 6.35476C26.0072 6.35476 27.0409 4.69642 25.8358 4.01549C25.4796 3.81358 25.1368 3.8092 24.8495 3.88296C24.6744 3.92786 24.506 4.00563 24.3517 4.10348C24.0371 4.29882 23.826 4.54928 23.6207 4.85707C23.3775 5.22255 23.0059 5.84944 22.4455 6.91849L20.3116 4.99837C20.1618 4.85671 20.3441 4.60515 20.425 4.47772C20.572 4.255 20.7765 4.09436 21.0026 3.95415C21.2407 3.80519 21.5003 3.69383 21.768 3.61022C21.9641 3.54596 22.4207 3.46381 22.4148 3.1845C22.4115 3.00523 22.2048 2.94316 22.063 2.92381C21.9492 2.90665 21.8303 2.89387 21.7115 2.88876C21.629 2.8862 21.5029 2.90665 21.4475 2.82121C21.4139 2.76973 21.4052 2.69744 21.4161 2.63829C21.4358 2.55541 21.5383 2.52328 21.6101 2.50831C21.6101 2.50831 22.3765 2.32539 22.3357 2.14028C22.3357 2.14028 22.3357 2.02637 21.7738 0.891966C21.7738 0.891966 21.66 0.678011 21.1813 1.08036C21.1022 1.14389 21.0449 1.22385 20.9399 1.24649C20.7065 1.29286 20.5111 1.05371 20.3572 0.911317C20.1596 0.727301 19.9525 0.553143 19.7133 0.424259C19.3873 0.249006 19.0249 0.159919 18.654 0.143489C18.5946 0.139838 18.5319 0.139838 18.4703 0.139838C18.1694 0.143489 17.83 0.191318 17.5481 0.303407C17.4329 0.349776 17.2932 0.352697 17.1908 0.28004C17.0985 0.221622 17.0194 0.138742 16.9202 0.088722C16.7984 0.0299391 16.6686 0 16.5344 0C16.052 0 15.6651 0.387748 15.6651 0.871155C15.6651 0.90365 15.6673 0.935049 15.6713 0.964988C15.6732 0.982879 15.6754 0.997848 15.6772 1.01428C15.698 1.13403 15.7421 1.25051 15.811 1.35091C15.8238 1.37209 15.8394 1.39071 15.8515 1.40933C15.8799 1.44365 15.9109 1.47687 15.9109 1.52324C15.9109 1.56121 15.8981 1.59079 15.8708 1.61708C15.5671 1.92852 14.9596 2.52109 14.397 4.23857C14.397 4.23857 11.7516 2.10194 9.43033 2.92673C9.27572 2.9815 9.12768 3.04795 8.98511 3.12827C8.98511 3.12827 10.1363 3.8092 10.5581 4.49488C10.5891 4.54782 10.5796 4.58652 10.5643 4.61537C10.5494 4.64531 10.5279 4.67671 10.448 4.69168C10.448 4.69168 10.4469 4.68876 10.4458 4.68876L5.61337 5.45257C5.57399 5.46133 5.543 5.45111 5.52987 5.41971C5.51601 5.38977 5.53716 5.35983 5.55065 5.35107L9.7935 1.77334C9.7935 1.77334 9.95868 1.63789 10.0874 1.4327C10.1662 1.32681 10.2139 1.19647 10.2139 1.05481C10.2139 0.733143 9.97399 0.467707 9.66369 0.423894C9.62869 0.417322 9.59368 0.412575 9.55977 0.408924C9.3213 0.37862 9.10617 0.385557 9.10617 0.385557H5.32714C5.32714 0.385557 5.24436 0.387748 5.14992 0.407464V0.408924C5.02741 0.438863 4.93625 0.548762 4.93625 0.680567C4.93625 0.780607 5.00298 0.868234 5.08867 0.947098C5.28083 1.12308 5.44127 1.20341 5.44965 1.48491C5.45549 1.78065 5.29942 2.0585 5.15868 2.3075L3.31437 5.5318C3.28447 5.57707 3.24509 5.67017 3.15539 5.74247C3.0657 5.8133 2.97235 5.82973 2.84181 5.84981C2.1224 5.94875 0.409725 6.18681 0.272623 6.20433C0.0779105 6.22916 0.000244141 6.35439 0.000244141 6.49752C0.000244141 6.61983 0.0779105 6.72352 0.18657 6.76405C0.305805 6.8075 0.403161 6.84547 0.564328 6.90279C0.564328 6.90279 1.01538 8.25443 1.08611 8.44502C1.15685 8.63524 1.4657 9.0982 2.25877 8.83204C2.55631 8.73309 2.976 8.81196 2.976 9.37788V16.8882C2.976 16.9061 2.97891 16.9474 3.00152 16.9831C3.02486 17.0204 3.06825 17.0452 3.11018 17.0525C3.44345 17.1153 4.35321 17.319 5.20863 17.8291C5.24291 17.8463 5.26551 17.8598 5.29724 17.8397C5.32969 17.8211 5.32714 17.7882 5.32714 17.7696V15.6589H9.52003L9.51383 16.7407C9.51383 16.7407 9.51383 17.8138 8.37873 17.8138C8.37873 17.8138 6.01483 17.8123 5.92841 17.8123C5.82413 17.8123 5.74464 17.8857 5.73625 17.9671C5.72276 18.0996 5.80371 18.169 5.93935 18.2501C5.93935 18.2501 10.9042 21.1345 9.60535 27.9942L13.7629 28C13.7629 28 14.0969 23.6643 10.9042 21.1348C10.8068 21.0592 10.7729 20.9979 10.7714 20.9552C10.766 20.8668 10.8615 20.8453 10.9242 20.8318C10.9548 20.8219 10.9855 20.8139 11.0154 20.8077C11.7253 20.6102 14.9982 19.5112 15.0343 15.8593L15.0562 8.97881C15.093 7.60052 15.2396 7.34749 15.5087 7.34749C15.6841 7.34749 15.7917 7.62826 15.9033 8.04084C16.1133 8.83824 16.4232 9.52794 17.0146 10.1154C17.4077 10.5021 17.8001 10.8891 18.1931 11.2757C18.1931 11.2757 20.2934 13.3353 20.4455 13.5029C20.751 13.8406 22.0075 15.8838 18.8243 17.7272C18.6529 17.8276 18.4455 17.8747 18.3561 18.0701C18.2435 18.3118 18.5111 18.5491 18.6555 18.7061C19.0774 19.1632 19.3961 19.6525 19.6899 20.1936C20.5975 21.853 21.8814 25.0499 21.259 27.9942H26.0881C26.0881 27.9942 26.5333 21.2568 20.44 18.9164C20.3503 18.8821 20.2788 18.8087 20.3124 18.7046C20.3499 18.605 20.4549 18.5597 20.5373 18.502C21.0238 18.1712 22.8163 16.7969 22.4743 14.7403C22.4743 14.7403 25.6648 14.8377 25.7228 11.5021ZM9.57436 14.0769H5.34063V12.987H9.57436V14.0769ZM9.57436 11.4053H5.34063V10.3162H9.57436V11.4053ZM12.2734 18.3027L12.2708 18.3012C12.2435 18.3198 12.2121 18.3297 12.1771 18.3297C12.0859 18.3297 12.0115 18.2563 12.0115 18.165C12.0115 18.1621 12.0126 18.1599 12.0126 18.1559L12.0115 18.1537V9.89816C12.0115 8.82692 11.2965 8.73638 10.9607 8.73638H5.15795C4.73388 8.73638 4.53662 8.54652 4.44728 8.37638C4.41957 8.32563 4.39587 8.26575 4.42431 8.18798C4.45421 8.11021 4.5089 8.07954 4.56178 8.06019L10.4699 6.09042C10.5348 6.06815 10.6198 6.04368 10.7109 6.01374C10.7346 6.00863 10.7795 5.98234 10.8323 6.01374C10.8921 6.04806 10.8885 6.07946 10.898 6.11415C10.9508 6.32956 11.0551 6.67606 11.2024 6.94295C11.931 8.26721 13.4052 8.33366 13.4052 8.33366L13.4074 16.2719C13.4074 17.5155 12.689 18.0175 12.2734 18.3027ZM18.4976 0.786814C18.7937 0.786814 19.0387 1.02998 19.0387 1.32864C19.0387 1.63022 18.7937 1.87192 18.4976 1.87192C18.1982 1.87192 17.9514 1.63022 17.9514 1.32864C17.9514 1.02998 18.1982 0.786814 18.4976 0.786814ZM21.9332 12.4496C21.7581 12.2794 17.9452 8.53922 17.8052 8.39536C17.6644 8.25114 16.844 7.34749 17.6644 6.49131C18.2588 5.87208 19.062 6.22113 19.3807 6.51139C19.695 6.80056 23.0548 9.87114 23.0548 9.87114C23.2867 7.89188 24.141 7.42782 24.141 7.42782C24.141 7.42782 24.6245 7.08133 24.9523 7.54392C25.2163 7.91634 24.7959 8.43662 24.7959 8.43662C25.0602 8.50782 25.1167 8.78202 25.077 9.02481C25.0526 9.17232 24.9826 9.30887 24.8794 9.41256C24.8032 9.48668 24.7401 9.51881 24.7401 9.51881C24.8546 9.50895 24.9293 9.56518 24.9727 9.6466C25.0194 9.73203 25.0351 9.84558 25.0343 9.94307C25.0314 10.1713 24.9505 10.4053 24.7948 10.5754C24.5494 10.8409 24.1957 10.9771 24.1957 10.9771C24.2354 11.7595 24.0079 12.1513 23.6808 12.4189C22.8808 13.1089 22.0841 12.5949 21.9332 12.4496Z" fill="#F18A00"/>
<path d="M63.8938 21.2101L57.663 7.32715H55.9412L49.3928 22.0517H51.3534L53.7286 16.7853H58.8966L60.5863 20.4627L60.5899 20.4657C60.6242 20.542 60.677 20.6676 60.731 20.7851C61.2955 21.9904 62.5224 22.0517 62.6574 22.0517H64.2453L63.8938 21.2101ZM54.3296 15.4582L56.2938 11.1112L58.2894 15.4582H54.3299H54.3296Z" fill="#53575A"/>
<path d="M47.1665 9.0211C45.4947 7.72276 43.5738 7.10938 40.7742 7.10938H34.9131V20.1C34.9131 20.7284 34.9131 21.321 35.3915 21.7638C35.8691 22.206 36.6495 22.206 37.1731 22.206H42.3366C46.9011 22.206 49.7784 18.5848 49.7809 15.1049C49.7835 12.5148 48.842 10.318 47.1669 9.02146M41.3237 20.904H38.7322C38.4846 20.8832 38.3165 20.7769 38.2258 20.6521C38.139 20.525 38.1073 20.3439 38.1073 20.0924V8.41465H40.866C42.9258 8.4183 44.1248 8.8641 45.1574 9.91927C46.349 11.1373 46.7169 12.7332 46.7195 15.0177C46.6837 18.7637 44.7815 20.873 41.3233 20.9036" fill="#53575A"/>
<path d="M105.735 7.00355V7.00209C103.227 6.99843 101.288 7.91742 100.009 9.34683C98.7267 10.7722 98.0923 12.6843 98.0912 14.6742C98.0967 18.6247 101.45 22.3656 105.735 22.3787H105.746C108.23 22.3787 110.153 21.4587 111.423 20.0333C112.7 18.602 113.339 16.683 113.339 14.6742C113.33 10.7536 109.982 7.01596 105.735 7.00355ZM105.735 21.0523C103.204 21.0464 101.033 18.9777 101.01 14.6742C101.033 10.4042 103.204 8.33657 105.735 8.33146C108.223 8.33292 110.401 10.4042 110.424 14.6742C110.401 18.9777 108.223 21.0479 105.735 21.0523Z" fill="#53575A"/>
<path d="M122.349 7.00355V7.00209C119.843 6.99843 117.905 7.91742 116.623 9.34683C115.342 10.7722 114.707 12.6843 114.707 14.6742C114.713 18.6261 118.065 22.3656 122.349 22.3787H122.363C124.846 22.3787 126.767 21.4587 128.04 20.0296C129.317 18.602 129.952 16.683 129.952 14.6742C129.944 10.7536 126.598 7.01596 122.349 7.00355M122.349 21.0523C119.819 21.0464 117.646 18.9777 117.623 14.6742C117.646 10.4042 119.818 8.33401 122.349 8.33146C124.838 8.33292 127.015 10.4042 127.033 14.6742C127.015 18.9777 124.838 21.0479 122.349 21.0523Z" fill="#53575A"/>
<path d="M65.6601 19.9465C65.6462 20.8636 65.9719 21.243 66.5272 21.6672C67.0264 22.0517 67.6663 22.0481 68.4696 22.0517H76.7777V20.7238H69.3709C69.041 20.7238 68.8772 20.6709 68.742 20.5456C68.5957 20.4094 68.5764 20.1619 68.5764 19.9125V15.0434H75.1624V13.714H68.5764V8.65834H76.0389V7.32715H65.6601V19.9465Z" fill="#53575A"/>
<path d="M160 14.5168H154.174V15.844H156.994C157.061 15.8491 157.258 15.8768 157.399 16.0057C157.573 16.1583 157.585 16.3642 157.585 16.377V19.9069C157.336 20.344 155.99 21.0486 154.427 21.0486C151.233 21.0486 149.161 18.6754 149.137 15.2288C149.137 12.7245 149.659 11.1833 150.493 10.0982C151.332 9.01164 152.461 8.33071 153.88 8.33071C157.167 8.33071 157.428 11.3097 157.428 11.3097H159.93C159.93 10.4195 158.97 7.00098 153.739 7.00098C151.071 7.00098 149.481 7.91229 148.168 9.38698C146.849 10.8613 146.222 12.8705 146.222 15.0659C146.222 18.9076 149.412 22.3762 154.01 22.3773C155.838 22.3773 157.408 21.8982 158.288 21.4908C159.328 21.003 159.989 20.4447 160 19.77V14.5157L160 14.5168Z" fill="#53575A"/>
<path d="M96.888 7.32715L92.2473 18.5116L87.7357 7.32715H84.7403L87.312 13.809L85.3025 18.5116L80.7866 7.32715H77.7944L83.2993 21.1817C83.4575 21.5694 83.7901 22.3781 84.597 22.3781C85.2118 22.3781 85.5082 22.2554 86.0136 21.1645L88.1602 15.9452L90.2546 21.2101C90.4132 21.5993 90.7479 22.3781 91.5516 22.3781C92.1514 22.3781 92.5062 22.162 92.947 21.1966L98.6236 7.32715H96.888Z" fill="#53575A"/>
<path d="M144.516 7.35547H142.721V17.2211C141.731 15.9261 137.694 10.6466 136.214 8.71879C135.612 7.93636 135.092 7.35547 133.854 7.35547H131.717V22.0767H133.511V9.6323C133.511 9.6323 141.364 19.8715 142.048 20.8507C142.733 21.8255 143.261 22.3889 143.69 22.4032H143.712C143.889 22.4032 144.129 22.3619 144.299 22.1698C144.463 21.9789 144.513 21.7357 144.516 21.4111V7.35547Z" fill="#53575A"/>
</g>
<defs>
<clipPath id="clip0_3512_6150">
<rect width="160" height="28" fill="white"/>
</clipPath>
</defs>
</svg>
