<svg width="17" height="16" viewBox="0 0 17 16" fill="none" xmlns="http://www.w3.org/2000/svg">
<path d="M3.06159 12.5619C2.81947 12.804 2.81947 13.1966 3.06159 13.4387C3.30372 13.6809 3.69628 13.6809 3.93841 13.4387L3.5 13.0003L3.06159 12.5619ZM13.2717 4.1054L13.7101 3.66699L12.8333 2.79018L12.3949 3.22859L12.8333 3.66699L13.2717 4.1054ZM12.8803 12.3333C12.8803 12.6757 13.1579 12.9533 13.5003 12.9533C13.8427 12.9533 14.1203 12.6757 14.1203 12.3333H13.5003H12.8803ZM13.5003 3H14.1203V2.38H13.5003V3ZM4.16699 2.38C3.82458 2.38 3.54699 2.65758 3.54699 3C3.54699 3.34242 3.82458 3.62 4.16699 3.62V3V2.38ZM3.5 13.0003L3.93841 13.4387L13.2717 4.1054L12.8333 3.66699L12.3949 3.22859L3.06159 12.5619L3.5 13.0003ZM13.5003 12.3333H14.1203V3H13.5003H12.8803V12.3333H13.5003ZM13.5003 3V2.38L4.16699 2.38V3V3.62L13.5003 3.62V3Z" fill="#201D1D" fill-opacity="0.6"/>
</svg>
